# xmcd
#
# Track frame offsets: 
#        150
#        15491
#        31669
#        51308
#        64453
#        77125
#        93383
#        110150
#        121745
#        138885
#        156352
#        168423
#        180352
#        199126
#        220863
#        241735
#        262225
#        278934
#        293595
#        312862
#        335010
#
# Disc length: 4609 seconds
#
# Revision: 1
# Processed by: cddbd v1.5.2PL0 Copyright (c) Steve Scherf et al.
# Submitted via: ExactAudioCopy v1.1
#
DISCID=3011ff15
DTITLE=Al Cohn - Featuring Bob Brookmeyer and You 'N' Me
DYEAR=1956
DGENRE=Jazz
TTITLE0=The Lady Is A Tramp (mono)
TTITLE1=Good Spirits (mono)
TTITLE2=A Blues Serenade (mono)
TTITLE3=Lazy Man Stomp (mono)
TTITLE4=Ill Wind (You're Blowin' Me No Good) (mono)
TTITLE5=Chlo-e (Song of the Swamp) (mono)
TTITLE6=S-H-I-N-E (mono)
TTITLE7=Back To Back (mono)
TTITLE8=So Far So Good (mono)
TTITLE9=Winter (mono)
TTITLE10=I Should Care (mono)
TTITLE11=Bunny Hunch (mono)
TTITLE12=The Note (stereo)
TTITLE13=Yuo'd Be So Nice To Come Home To (stereo)
TTITLE14=You 'N' Me (stereo)
TTITLE15=On The Alamo (stereo)
TTITLE16=The Opener (stereo)
TTITLE17=Angel Eyes (stereo)
TTITLE18=Awful Lonely (stereo)
TTITLE19=Love For Sale (stereo)
TTITLE20=Improvisation For Unaccompanied Saxophones (stereo)
EXTD=YEAR: 1956
EXTT0=
EXTT1=
EXTT2=
EXTT3=
EXTT4=
EXTT5=
EXTT6=
EXTT7=
EXTT8=
EXTT9=
EXTT10=
EXTT11=
EXTT12=
EXTT13=
EXTT14=
EXTT15=
EXTT16=
EXTT17=
EXTT18=
EXTT19=
EXTT20=
PLAYORDER=
